<svg id="svg" version="1.1" xmlns="http://www.w3.org/2000/svg" xmlns:xlink="http://www.w3.org/1999/xlink" width="400" height="400" viewBox="50, 70, 300, 250"><g id="svgg"><path id="path0" d="M119.375 80.191 C 119.375 80.296,120.708 82.249,122.337 84.530 C 159.327 136.330,165.629 197.996,140.524 262.500 C 135.580 275.203,126.874 292.344,121.213 300.520 C 120.718 301.235,120.313 301.974,120.313 302.160 C 120.313 302.402,128.612 302.500,149.185 302.500 L 178.058 302.500 180.215 299.922 C 216.669 256.364,228.882 201.710,213.712 150.028 C 213.178 148.208,212.636 146.297,212.508 145.781 C 208.234 128.599,191.511 96.221,179.297 81.484 L 178.067 80.000 148.721 80.000 C 132.581 80.000,119.375 80.086,119.375 80.191 M236.038 164.766 C 239.057 177.411,239.759 202.212,237.492 216.143 C 237.335 217.110,237.280 218.022,237.371 218.170 C 237.586 218.517,284.286 218.521,284.501 218.174 C 284.591 218.029,284.534 217.431,284.375 216.846 C 281.577 206.561,280.867 177.857,283.110 165.713 C 283.244 164.988,283.278 164.320,283.187 164.229 C 283.096 164.137,272.412 164.063,259.445 164.063 L 235.870 164.063 236.038 164.766 " stroke="none" fill="#fb0404" fill-rule="evenodd"></path><path id="path1" d="M197.813 80.395 C 197.813 80.612,198.483 81.632,199.303 82.661 C 207.558 93.020,220.371 115.305,224.545 126.563 C 224.768 127.164,225.496 128.922,226.164 130.469 L 227.378 133.281 258.767 133.353 C 276.031 133.392,290.453 133.346,290.816 133.250 C 291.307 133.119,291.775 132.308,292.652 130.064 C 298.564 114.942,308.747 97.865,320.210 83.850 C 321.641 82.100,322.813 80.518,322.813 80.334 C 322.813 80.098,304.441 80.000,260.313 80.000 C 210.139 80.000,197.813 80.078,197.813 80.395 M228.711 250.547 C 228.357 251.363,227.674 253.016,227.192 254.219 C 224.460 261.043,219.569 270.584,215.183 277.646 C 210.710 284.848,204.124 294.091,199.255 300.000 C 198.164 301.325,197.703 302.111,197.931 302.262 C 198.506 302.640,322.813 302.548,322.813 302.169 C 322.813 301.991,321.783 300.481,320.525 298.813 C 311.118 286.348,301.843 269.927,295.336 254.219 C 294.624 252.500,293.838 250.637,293.589 250.078 L 293.135 249.063 261.244 249.063 L 229.353 249.063 228.711 250.547 " stroke="none" fill="#2cabe2" fill-rule="evenodd"></path><path id="path3" d="M77.681 81.172 C 78.165 81.816,78.648 82.414,78.754 82.500 C 80.713 84.082,93.565 103.253,97.536 110.516 C 102.751 120.054,105.049 124.651,108.368 132.188 C 129.443 180.038,127.804 228.148,103.736 268.163 C 100.063 274.270,93.083 284.157,90.415 287.031 C 90.096 287.375,89.010 288.641,88.001 289.844 C 86.993 291.047,84.464 293.843,82.381 296.056 C 80.298 298.270,78.547 300.204,78.490 300.353 C 78.432 300.503,82.224 300.625,86.950 300.625 L 95.515 300.625 97.392 298.672 C 102.867 292.974,110.428 282.741,116.157 273.277 C 130.889 248.936,138.667 219.760,138.022 191.250 C 137.519 168.991,133.098 149.820,123.068 126.406 C 120.113 119.508,113.278 106.591,108.766 99.375 C 105.254 93.760,99.020 84.502,97.401 82.500 C 97.193 82.242,96.698 81.574,96.302 81.016 L 95.582 80.000 86.192 80.000 L 76.801 80.000 77.681 81.172 " stroke="none" fill="#1c1463" fill-rule="evenodd"></path></g></svg>